<svg width="384" height="83" viewBox="0 0 384 83" fill="none" xmlns="http://www.w3.org/2000/svg">
<path d="M29.5514 55.968C30.2102 55.7801 30.869 55.4981 31.3396 55.4041L33.4101 61.983C33.0336 62.077 32.3748 62.2649 31.716 62.5469C28.1397 63.7687 22.0224 65.8363 16.0933 65.8363C12.517 65.8363 9.03483 65.0844 6.21145 63.0168C2.07048 60.1033 0 55.1222 0 48.0734V35.1037C0 28.1489 2.07048 23.1678 6.21145 20.1604C13.9287 14.7093 25.9751 18.7506 31.716 20.7243C32.3748 20.9122 33.0336 21.1002 33.4101 21.2882L31.3396 27.867C30.869 27.679 30.2102 27.4911 29.5514 27.3031C27.0104 26.3633 23.1518 25.1415 19.2931 24.5776C15.2463 24.0137 12.2347 24.3896 10.2583 25.7994C7.99959 27.3971 6.96435 30.4985 6.96435 35.1037V48.0734C6.96435 52.6786 7.99959 55.8741 10.2583 57.3778C12.2347 58.7875 15.2463 59.2575 19.2931 58.6936C23.1518 58.1297 27.0104 56.8139 29.5514 55.968ZM59.5734 17.7168L60.2322 24.6716C54.0208 25.2355 47.8093 31.9083 47.8093 38.0172V64.9905H40.845V18.4687H47.8093V23.3558C51.1974 20.1604 55.4325 18.1867 59.5734 17.7168V17.7168ZM103.806 56.5319C106.159 58.9755 107.006 62.3589 107.006 64.8965H100.136C100.136 63.4867 99.4773 61.6071 98.2538 60.9492C96.8421 60.1973 94.3011 60.8552 91.2895 62.7349C87.525 65.0844 84.1369 65.7423 81.5958 65.7423C80.3724 65.7423 79.3371 65.6483 78.4901 65.4604C74.8197 64.6145 71.714 62.2649 69.5494 58.8815C67.1966 55.3102 66.2554 50.799 66.8201 46.4757C67.573 41.6826 70.1141 37.5473 74.1609 34.9158C77.1725 32.9421 80.7488 31.8143 84.4192 31.7203C87.8073 31.7203 91.1954 32.5662 94.207 34.1639C95.1481 34.6338 95.9951 35.2917 96.8421 35.8556V35.1037C96.8421 30.4985 95.7128 27.3971 93.5482 25.7994C91.5718 24.3896 88.5602 24.0137 84.4192 24.5776C80.6547 25.0475 76.7961 26.3633 74.255 27.2091C73.5021 27.4911 72.9375 27.679 72.3728 27.867L70.3964 21.1942C70.7729 21.1002 71.3375 20.9122 71.9963 20.6303C77.8313 18.7506 89.8778 14.6153 97.595 20.1604C101.736 23.0738 103.806 28.1489 103.806 35.1037V56.5319V56.5319ZM87.6191 56.8139C91.3836 54.5583 94.3952 53.7124 96.8421 53.7124V49.4832C96.8421 45.7238 94.5834 42.2465 90.913 40.2728C86.6779 38.0172 81.8782 38.2052 77.9254 40.7427C72.7492 44.0321 72.561 50.799 75.3844 55.2162C76.6079 57.1898 80.3724 61.3251 87.6191 56.8139ZM130.817 8.6004C128.746 10.2921 127.711 13.2996 127.711 17.7168V17.9987H139.099V24.9535H127.711V64.8965H120.747V24.9535H113.594V17.9987H120.747V17.7168C120.747 11.1379 122.723 6.25081 126.394 3.24334C128.84 1.36367 131.852 0.235867 135.523 0.0479002C138.158 -0.140067 141.075 0.235868 144.463 0.987736L142.957 7.75454C137.217 6.43878 133.17 6.72073 130.817 8.6004V8.6004ZM175.238 58.0357L176.744 64.8025C174.015 65.3664 171.474 65.7423 169.215 65.7423C158.768 65.7423 153.028 59.0695 153.122 47.9795V24.6716H145.875V17.8108H153.122V6.43877H159.992V17.8108H172.603V24.6716H159.992V47.9795C159.992 52.3967 161.027 55.4981 163.098 57.0958C165.45 58.9755 169.591 59.2575 175.238 58.0357V58.0357ZM215.424 21.5701C218.907 24.6716 220.601 29.2768 220.601 35.1977V49.0133C220.601 55.4041 217.401 61.3251 212.413 64.0506C210.907 64.8965 208.648 65.7423 205.731 65.7423C203.001 65.7423 199.707 64.9905 196.037 62.7349C193.025 60.8552 190.484 60.1973 189.073 60.9492C187.849 61.6071 187.19 63.4867 187.19 64.8965H180.32C180.32 62.3589 181.167 58.9755 183.52 56.5319V35.6676V1.55164H190.484V23.2618C193.872 20.0664 198.108 17.9987 202.249 17.6228C204.601 17.4348 210.719 17.3409 215.424 21.5701V21.5701ZM213.73 49.0133V35.1977C213.73 31.2504 212.695 28.4309 210.813 26.6452C208.084 24.2016 204.037 24.3896 202.907 24.4836C196.602 25.1415 190.484 31.8143 190.484 37.9232V53.7124C192.931 53.7124 195.943 54.5583 199.707 56.8139C202.154 58.4116 205.825 59.8214 209.025 58.0357C211.848 56.438 213.73 52.8666 213.73 49.0133V49.0133ZM260.504 18.3747H267.469C268.504 30.5925 264.175 40.8367 259.469 49.2952C257.493 53.0546 255.046 57.3778 252.599 61.4191V61.5131H252.505C249.776 65.9303 247.046 69.9716 244.693 72.6971C239.141 78.994 233.588 82.2834 228.318 82.2834C227.659 82.2834 226.906 82.1894 226.153 82.0954L227.377 75.2347C229.071 75.5166 230.953 75.0467 233.118 73.7309C235.094 72.5091 237.259 70.6295 239.517 68.0919C240.741 66.6822 242.341 64.6145 244.035 61.889C243.658 61.5131 243.376 61.1371 243.188 60.6672C242.058 58.7876 240.741 56.7199 239.329 54.6523C235.941 49.2952 231.988 43.3743 229.447 36.4195C227.283 30.2166 226.436 24.2956 227 18.3747H233.965C232.459 31.2504 239.141 41.5886 245.164 50.8929C246.199 52.3967 247.14 53.9944 248.081 55.4041C249.776 52.5846 251.564 49.4832 253.446 46.0058C257.775 37.9232 261.634 28.9948 260.504 18.3747V18.3747ZM301.349 58.0357L302.855 64.8025C300.126 65.3664 297.585 65.7423 295.326 65.7423C284.88 65.7423 279.139 59.0695 279.233 47.9795V24.6716H271.986V17.8108H279.233V6.43877H286.103V17.8108H298.714V24.6716H286.103V47.9795C286.103 52.3967 287.138 55.4981 289.209 57.0958C291.562 58.9755 295.703 59.2575 301.349 58.0357ZM343.606 35.1977V44.2201L315.749 50.705C316.125 53.8064 317.066 55.968 318.76 57.2838C321.489 59.3514 326.383 59.3514 333.348 57.4718C335.042 56.9079 339.277 55.5921 340.594 55.1222L342.853 61.701C341.63 62.077 337.206 63.5807 335.23 64.0506C331.277 65.1784 327.795 65.7423 324.689 65.7423C320.548 65.7423 317.254 64.8025 314.525 62.7349C310.855 59.9154 308.878 55.3102 308.69 49.0133V35.1977C308.69 31.4384 309.349 28.2429 310.667 25.6114C311.89 23.2618 313.584 21.3821 315.843 19.9724C319.795 17.6228 324.407 17.6228 326.101 17.6228C327.889 17.6228 332.407 17.6228 336.453 19.9724C338.618 21.3821 340.406 23.2618 341.63 25.6114C342.947 28.2429 343.606 31.4384 343.606 35.1977V35.1977ZM336.642 38.6751V35.1977C336.642 30.4985 335.418 27.4911 332.877 25.8933C330.524 24.4836 327.419 24.4836 326.101 24.4836C324.783 24.4836 321.772 24.4836 319.419 25.8933C316.878 27.4911 315.56 30.4985 315.56 35.1977V43.6562L336.642 38.6751ZM370.522 65.6483C363.746 65.6483 355.088 63.6747 352.17 62.5469L354.711 56.156C357.346 57.1898 368.264 59.5394 373.44 58.5056C375.228 58.2236 376.734 56.5319 377.016 54.4643C377.393 51.8328 375.51 49.2012 371.934 47.5095C369.769 46.3817 365.911 44.596 362.711 43.1863C360.829 42.3404 359.229 41.6826 358.193 41.2126C355.652 39.9909 353.582 38.2052 352.17 36.0436C350.853 33.8819 350.194 31.5324 350.288 29.0888C350.288 26.8332 351.041 24.6716 352.264 22.7919C353.676 20.8182 355.558 19.3145 357.817 18.4687C360.829 17.2469 365.252 17.1529 370.805 18.2807C375.04 19.1265 378.898 20.3483 380.498 21.0062L378.051 27.4911C376.734 26.9272 373.252 25.7994 369.487 25.0475C363.652 23.9197 361.205 24.5776 360.358 24.8595C358.476 25.6114 357.252 27.3031 357.158 29.2768C357.158 31.6263 358.57 33.694 361.205 34.9158C362.146 35.3857 363.652 36.0436 365.534 36.8894C368.734 38.2992 372.781 40.0848 375.04 41.3066C378.334 42.9043 380.686 44.972 382.286 47.6035C383.698 50.0471 384.263 52.7726 383.886 55.4981C383.51 57.8477 382.475 60.1033 380.875 61.889C379.181 63.6747 377.11 64.8965 374.757 65.3664C373.534 65.5544 372.028 65.6483 370.522 65.6483V65.6483Z" fill="#ED6D75"/>
</svg>
